<svg version="1.1" id="Layer_1" xmlns="http://www.w3.org/2000/svg" xmlns:xlink="http://www.w3.org/1999/xlink" x="0px" y="0px"
	 width="100%" viewBox="0 0 1200 1200" enable-background="new 0 0 1200 1200" xml:space="preserve">
<path fill="#000000" opacity="1.000000" stroke="none" 
	d="
M636.000000,1201.000000 
	C424.000000,1201.000000 212.500000,1201.000000 1.000000,1201.000000 
	C1.000000,801.000000 1.000000,401.000000 1.000000,1.000000 
	C401.000000,1.000000 801.000000,1.000000 1201.000000,1.000000 
	C1201.000000,401.000000 1201.000000,801.000000 1201.000000,1201.000000 
	C1012.833313,1201.000000 824.666687,1201.000000 636.000000,1201.000000 
M250.139160,842.318542 
	C251.068054,843.489380 252.094650,844.596069 252.911316,845.840515 
	C266.716705,866.878052 283.303467,885.711853 301.144470,903.224670 
	C315.284790,917.104858 330.872040,929.609619 346.494202,941.861389 
	C380.048401,968.176392 417.615173,987.366333 457.548157,1001.961975 
	C495.429993,1015.807922 534.776001,1023.170593 574.881409,1025.717896 
	C593.578003,1026.905396 612.520569,1026.276489 631.219604,1024.799683 
	C650.461426,1023.279968 669.622498,1020.195557 688.675842,1016.954895 
	C720.225220,1011.588806 750.098083,1000.679260 779.061096,987.364624 
	C802.752930,976.473206 825.616272,963.946106 846.458801,948.162048 
	C861.223816,936.980469 876.241516,925.938965 889.736389,913.326233 
	C904.138672,899.865356 917.381470,885.058594 930.240234,870.075317 
	C951.820374,844.929565 969.122192,816.853271 983.690430,787.144104 
	C997.295593,759.398987 1007.556458,730.409729 1014.796509,700.346924 
	C1020.701416,675.828003 1024.471191,650.949097 1025.769287,625.824646 
	C1026.582153,610.090820 1026.090942,594.193237 1024.853516,578.474060 
	C1023.284851,558.548584 1021.186829,538.590210 1017.848633,518.894897 
	C1011.837158,483.426544 1000.081909,449.666321 984.605164,417.215240 
	C974.234497,395.470398 962.446472,374.470673 947.928467,355.259186 
	C935.464417,338.765656 922.489380,322.543732 908.471375,307.374268 
	C896.679565,294.613892 883.371033,283.182098 870.178284,271.806580 
	C850.805664,255.102417 829.592834,240.853287 807.120667,228.705551 
	C771.999878,209.720367 735.445129,193.981995 696.055420,186.356552 
	C673.197815,181.931564 650.066101,177.864746 626.886658,176.460266 
	C604.259033,175.089249 581.328613,176.314621 558.690063,178.254898 
	C539.152039,179.929474 519.596863,183.161896 500.471344,187.546677 
	C452.524414,198.539154 408.137207,218.279282 367.114868,245.390518 
	C339.391602,263.712555 313.571869,284.388062 291.277649,309.211151 
	C284.514404,316.741547 277.258209,323.871429 270.956238,331.766235 
	C249.294495,358.903076 230.553879,387.893250 215.738419,419.407837 
	C203.145645,446.194397 193.287018,473.851654 186.578018,502.682770 
	C179.641251,532.492737 175.657303,562.547363 175.830093,593.256958 
	C175.966721,617.539368 176.432556,641.756958 180.235550,665.744751 
	C184.778778,694.401917 191.771744,722.474182 202.014816,749.693115 
	C214.276398,782.275757 230.022598,813.023560 250.139160,842.318542 
z"/>
<path fill="#353D60" opacity="1.000000" stroke="none" 
	d="
M249.998901,841.986572 
	C230.022598,813.023560 214.276398,782.275757 202.014816,749.693115 
	C191.771744,722.474182 184.778778,694.401917 180.235550,665.744751 
	C176.432556,641.756958 175.966721,617.539368 175.830093,593.256958 
	C175.657303,562.547363 179.641251,532.492737 186.578018,502.682770 
	C193.287018,473.851654 203.145645,446.194397 215.738419,419.407837 
	C230.553879,387.893250 249.294495,358.903076 270.956238,331.766235 
	C277.258209,323.871429 284.514404,316.741547 291.277649,309.211151 
	C313.571869,284.388062 339.391602,263.712555 367.114868,245.390518 
	C408.137207,218.279282 452.524414,198.539154 500.471344,187.546677 
	C519.596863,183.161896 539.152039,179.929474 558.690063,178.254898 
	C581.328613,176.314621 604.259033,175.089249 626.886658,176.460266 
	C650.066101,177.864746 673.197815,181.931564 696.055420,186.356552 
	C735.445129,193.981995 771.999878,209.720367 807.120667,228.705551 
	C829.592834,240.853287 850.805664,255.102417 870.178284,271.806580 
	C883.371033,283.182098 896.679565,294.613892 908.471375,307.374268 
	C922.489380,322.543732 935.464417,338.765656 947.928467,355.259186 
	C962.446472,374.470673 974.234497,395.470398 984.605164,417.215240 
	C1000.081909,449.666321 1011.837158,483.426544 1017.848633,518.894897 
	C1021.186829,538.590210 1023.284851,558.548584 1024.853516,578.474060 
	C1026.090942,594.193237 1026.582153,610.090820 1025.769287,625.824646 
	C1024.471191,650.949097 1020.701416,675.828003 1014.796509,700.346924 
	C1007.556458,730.409729 997.295593,759.398987 983.690430,787.144104 
	C969.122192,816.853271 951.820374,844.929565 930.240234,870.075317 
	C917.381470,885.058594 904.138672,899.865356 889.736389,913.326233 
	C876.241516,925.938965 861.223816,936.980469 846.458801,948.162048 
	C825.616272,963.946106 802.752930,976.473206 779.061096,987.364624 
	C750.098083,1000.679260 720.225220,1011.588806 688.675842,1016.954895 
	C669.622498,1020.195557 650.461426,1023.279968 631.219604,1024.799683 
	C612.520569,1026.276489 593.578003,1026.905396 574.881409,1025.717896 
	C534.776001,1023.170593 495.429993,1015.807922 457.548157,1001.961975 
	C417.615173,987.366333 380.048401,968.176392 346.494202,941.861389 
	C330.872040,929.609619 315.284790,917.104858 301.144470,903.224670 
	C283.303467,885.711853 266.716705,866.878052 252.911316,845.840515 
	C252.094650,844.596069 251.068054,843.489380 249.998901,841.986572 
M651.601074,644.867371 
	C610.915100,591.885864 570.246643,538.890930 529.480103,485.971466 
	C527.831848,483.831879 525.417725,481.180756 523.083862,480.874298 
	C515.643250,479.897339 508.071960,479.915497 500.207397,479.532532 
	C500.207397,482.406921 500.207397,484.053162 500.207397,485.699371 
	C500.207367,564.688171 500.207336,643.676941 500.207520,722.665771 
	C500.207520,723.498962 500.281036,724.339172 500.199341,725.164124 
	C499.918518,727.999878 501.185669,728.953979 503.979492,728.898071 
	C510.975677,728.758240 517.981201,728.700500 524.973694,728.914246 
	C528.706421,729.028259 529.883118,727.624329 529.870361,723.966553 
	C529.657776,662.979431 529.541138,601.992004 529.430664,541.004578 
	C529.428772,539.975220 529.768616,538.945190 530.101562,537.044556 
	C531.736816,538.961365 532.836304,540.139465 533.813599,541.411438 
	C577.964417,598.872742 622.322998,656.176819 666.046570,713.961548 
	C674.021790,724.501587 682.275940,730.818176 696.000977,729.075317 
	C700.718933,728.476257 702.061584,727.476624 702.053345,722.738098 
	C701.915833,643.749512 701.955322,564.760681 701.955322,485.771851 
	C701.955322,483.996246 701.955322,482.220642 701.955322,480.126678 
	C691.886047,480.126678 682.472595,480.126678 672.425903,480.126678 
	C672.425903,511.963654 672.425903,543.578247 672.425903,575.192871 
	C672.425903,606.921631 672.425903,638.650391 672.425903,671.908142 
	C665.104492,662.401733 658.569092,653.915894 651.601074,644.867371 
M464.083344,973.072815 
	C468.131500,973.808716 471.184265,972.106628 471.676971,968.231262 
	C471.905670,966.432251 470.005920,963.488586 468.260529,962.511169 
	C465.424896,960.923218 462.215698,962.068237 460.714142,965.107239 
	C459.151886,968.269165 460.018005,971.157410 464.083344,973.072815 
M416.043152,250.177750 
	C415.080444,251.031601 413.887451,251.731750 413.196472,252.766983 
	C410.733185,256.457336 412.689301,258.910004 415.798157,260.866211 
	C419.189087,262.999908 421.449188,261.039856 423.098236,258.407410 
	C425.729279,254.207413 422.768036,250.374252 416.043152,250.177750 
M786.934021,941.635925 
	C784.251038,939.471497 781.432861,939.758362 779.516052,942.274231 
	C778.322449,943.840820 777.293030,946.852295 778.029480,948.237305 
	C778.961426,949.990051 781.707458,951.627808 783.769043,951.757507 
	C788.371338,952.046814 789.943237,947.588074 786.934021,941.635925 
M828.728271,911.236450 
	C824.093506,913.709656 822.632690,916.892822 824.814941,920.120361 
	C826.908630,923.216919 829.894348,924.070435 832.897888,921.829529 
	C834.197876,920.859680 835.633911,917.999390 835.109009,917.066040 
	C833.815552,914.766235 831.422546,913.084900 828.728271,911.236450 
M463.450958,230.080780 
	C460.803619,233.114410 462.134338,235.763336 464.702698,237.683441 
	C467.341125,239.655945 470.254059,239.696930 472.626190,236.823807 
	C474.664398,234.355148 474.297516,232.176010 472.308868,229.755386 
	C469.478424,226.310059 466.825989,226.753250 463.450958,230.080780 
M398.863983,273.428528 
	C402.105499,269.977020 401.248260,266.797607 397.921326,264.153992 
	C394.718750,261.609222 392.018890,263.567535 390.535065,266.253021 
	C389.640900,267.871368 389.561371,270.812958 390.471069,272.366150 
	C392.167145,275.262054 395.184326,275.674469 398.863983,273.428528 
M368.206421,280.490784 
	C365.706085,284.495941 366.369232,287.874664 369.937012,289.946716 
	C373.858917,292.224426 376.032227,289.620972 377.280487,286.773254 
	C377.945892,285.255341 377.304504,282.588318 376.312256,281.044495 
	C374.457977,278.159363 371.583893,278.649689 368.206421,280.490784 
M787.672668,261.567749 
	C788.429138,260.710480 789.329590,259.941071 789.916016,258.980011 
	C791.956909,255.635147 790.260559,252.911163 787.515686,251.548996 
	C784.803345,250.203003 781.578613,250.509018 779.776062,253.749512 
	C777.959839,257.014557 779.287170,259.635162 782.147217,261.287567 
	C783.421997,262.024109 785.320312,261.681396 787.672668,261.567749 
M418.765625,939.495850 
	C415.294525,938.140686 412.331604,939.623962 411.595398,942.655518 
	C411.067963,944.827271 412.347961,948.035828 413.901398,949.864502 
	C414.686523,950.788940 418.313934,950.364441 419.872009,949.347900 
	C423.242584,947.148743 422.190643,943.963379 420.391113,941.068054 
	C420.134918,940.655823 419.713867,940.346069 418.765625,939.495850 
M805.175232,937.544312 
	C809.273804,938.965759 811.954834,936.926270 812.498657,933.289246 
	C812.766235,931.500000 810.989685,928.429077 809.298950,927.547241 
	C806.637207,926.158997 803.302795,926.596375 801.687927,929.926758 
	C800.113220,933.174438 801.127197,935.690247 805.175232,937.544312 
M808.473877,264.489044 
	C806.674988,265.919250 803.977051,267.008789 803.277283,268.855499 
	C802.074585,272.029633 803.960876,274.865753 807.249512,275.755219 
	C810.970459,276.761597 813.458679,274.590424 814.265381,271.130798 
	C815.178833,267.213135 812.602966,265.479858 808.473877,264.489044 
M685.048523,986.413391 
	C687.920471,983.611633 687.680176,980.866394 684.747742,978.339905 
	C682.067505,976.030701 679.773071,976.936218 677.324585,979.103821 
	C674.531860,981.576294 674.729797,983.964539 676.995422,986.336304 
	C679.198059,988.642151 681.739197,990.255249 685.048523,986.413391 
M734.172729,228.882507 
	C729.996277,229.690094 729.070557,232.916702 730.435486,235.943008 
	C731.267639,237.788010 734.299683,239.567108 736.435059,239.682449 
	C739.695801,239.858551 741.112366,237.077972 740.950623,233.862228 
	C740.758972,230.052231 738.707886,228.275726 734.172729,228.882507 
M542.194336,215.138031 
	C544.250549,216.723267 546.199158,219.309677 548.400330,219.546204 
	C549.898865,219.707199 552.635193,216.816849 553.163940,214.846909 
	C553.584167,213.281097 551.931274,210.569183 550.435242,209.201324 
	C547.307922,206.341965 543.487915,208.831970 542.194336,215.138031 
M490.577271,229.042191 
	C493.461151,232.302353 496.783600,231.234818 498.507080,228.503403 
	C499.617188,226.744049 499.204742,223.094543 498.071655,221.082199 
	C496.621643,218.507004 493.566559,218.618835 491.146576,220.538696 
	C488.307526,222.790970 487.261322,225.430817 490.577271,229.042191 
M398.454956,932.962708 
	C399.484100,929.514282 397.598907,927.270813 394.732513,926.613953 
	C392.893555,926.192566 390.075867,926.910706 388.720581,928.196716 
	C386.300598,930.493225 386.444061,933.653687 388.937805,936.102966 
	C391.146332,938.272034 395.570312,936.969543 398.454956,932.962708 
M688.505066,220.891190 
	C688.852661,216.005142 686.260437,212.679504 682.561829,213.986359 
	C680.448669,214.733017 678.098145,217.018967 677.500793,219.087280 
	C677.085022,220.527084 679.476501,224.348618 680.596680,224.341629 
	C683.109619,224.326004 685.611694,222.587296 688.505066,220.891190 
M526.694946,219.359375 
	C525.836487,217.817810 525.279724,215.957764 524.057556,214.800217 
	C521.421143,212.303131 518.050415,212.599854 516.439758,215.504227 
	C515.392212,217.393143 515.527771,221.171295 516.793335,222.855911 
	C519.518494,226.483337 523.272522,225.146576 526.694946,219.359375 
M759.390015,963.900513 
	C761.160095,962.041077 763.716370,960.425171 764.396790,958.228271 
	C764.786926,956.968628 762.477051,954.069458 760.738220,953.205994 
	C759.328613,952.505981 756.566162,953.186340 755.088501,954.226807 
	C751.159729,956.993530 752.941467,961.638550 759.390015,963.900513 
M655.646362,992.943970 
	C658.240723,991.606750 660.714600,990.033447 659.642578,986.579285 
	C658.762573,983.743591 656.843567,981.008484 653.602478,982.285400 
	C651.424377,983.143372 648.523193,985.778442 648.489563,987.663818 
	C648.431702,990.905640 650.562500,993.928589 655.646362,992.943970 
M448.133698,246.500656 
	C449.997803,242.389725 448.216736,239.183701 444.423401,238.614807 
	C442.321320,238.299561 439.752350,241.097672 437.393829,242.492447 
	C438.725525,244.693695 439.598663,247.663803 441.549347,248.827271 
	C442.861298,249.609787 445.697357,247.837021 448.133698,246.500656 
M846.424438,902.775635 
	C848.294556,903.997803 850.143860,906.191162 852.039246,906.231750 
	C855.554749,906.306885 857.090759,903.468750 856.894104,900.082764 
	C856.699524,896.730652 854.626404,894.809814 851.344299,895.139832 
	C847.425415,895.533752 845.573608,897.999207 846.424438,902.775635 
M975.310852,727.072327 
	C975.967651,724.946411 977.570496,722.511475 977.006348,720.784302 
	C976.477966,719.166626 973.627014,717.323303 971.849121,717.373718 
	C970.058105,717.424500 967.623169,719.314331 966.713928,721.049866 
	C964.504395,725.267456 968.417480,728.357056 975.310852,727.072327 
M258.111206,791.465149 
	C255.398514,796.058411 256.676666,800.664673 260.982635,800.775513 
	C262.916473,800.825256 265.528748,799.607666 266.655884,798.090515 
	C267.583984,796.841248 267.527496,793.752197 266.576569,792.450989 
	C264.724518,789.916504 261.772064,789.040771 258.111206,791.465149 
M294.046082,846.384705 
	C297.167816,845.285095 298.819489,842.914917 297.772003,839.889893 
	C297.125366,838.022339 295.118683,835.689819 293.404541,835.391174 
	C291.690918,835.092529 288.957672,836.591614 287.774902,838.143616 
	C285.308929,841.379456 287.668488,844.719666 294.046082,846.384705 
M228.044006,474.175476 
	C225.499359,475.634125 222.752563,477.575012 224.622787,480.645294 
	C225.815781,482.603821 228.870621,484.603455 230.960373,484.474426 
	C232.680740,484.368195 235.527069,481.169006 235.543152,479.320251 
	C235.574646,475.699738 232.930618,473.463409 228.044006,474.175476 
M246.067581,775.366577 
	C249.908691,777.186768 253.692368,776.379456 254.656921,773.251770 
	C255.697388,769.877930 254.931503,766.707947 251.153259,765.819092 
	C249.441406,765.416321 246.077835,766.194153 245.679642,767.262390 
	C244.848572,769.492065 245.490738,772.270874 246.067581,775.366577 
M948.443481,434.868378 
	C950.627014,436.792847 953.200195,437.794220 955.455200,435.568695 
	C956.762573,434.278473 957.885132,431.896271 957.679504,430.173981 
	C957.300232,426.996979 955.084778,424.754456 951.500305,425.397766 
	C947.510193,426.113922 946.365662,429.243317 948.443481,434.868378 
M885.428162,864.804199 
	C886.862732,867.898560 889.180969,869.261719 892.520325,868.122864 
	C895.816040,866.999023 896.958252,864.045715 895.647949,861.412537 
	C894.687073,859.481567 891.783020,857.329346 889.781982,857.364807 
	C886.206299,857.428284 884.601196,860.354126 885.428162,864.804199 
M934.531067,408.813324 
	C935.210266,409.531158 935.827942,410.780273 936.580078,410.867340 
	C938.842529,411.129181 941.827759,411.797913 943.261292,410.679840 
	C944.667236,409.583313 945.531677,406.003448 944.767517,404.406311 
	C943.970581,402.740601 940.888672,401.169952 938.906189,401.285187 
	C935.199280,401.500702 934.035034,404.607147 934.531067,408.813324 
M279.687805,386.933441 
	C283.593567,385.395935 283.987030,382.040894 282.221436,379.290619 
	C281.134155,377.596985 277.223480,375.900452 275.880219,376.622650 
	C273.982819,377.642731 272.238220,380.935089 272.317963,383.189209 
	C272.444794,386.774200 275.779694,387.362427 279.687805,386.933441 
M757.745850,249.771637 
	C758.380798,249.947815 759.010803,250.144440 759.651428,250.296722 
	C763.055420,251.105988 765.171387,249.401443 765.818604,246.362991 
	C766.532166,243.012817 765.609436,239.832367 761.669800,239.226456 
	C758.259583,238.701981 755.802124,240.769791 755.329651,244.034637 
	C755.089661,245.693253 756.463379,247.585388 757.745850,249.771637 
M265.767975,409.558075 
	C268.968231,407.611572 270.221191,404.851746 267.937347,401.688934 
	C265.758453,398.671539 262.477325,398.244720 259.764404,400.874725 
	C258.512604,402.088287 257.568756,404.620056 257.903534,406.265625 
	C258.647736,409.923676 261.756897,410.365082 265.767975,409.558075 
M520.396729,987.780273 
	C523.797791,986.085266 525.214111,983.181641 523.120667,980.101257 
	C522.018799,978.479980 518.816956,977.065063 516.956604,977.451294 
	C513.739014,978.119324 512.303528,981.177856 513.170776,984.528442 
	C514.023071,987.821350 516.409424,988.910828 520.396729,987.780273 
M935.763367,801.840942 
	C939.249084,803.626099 942.574707,803.434021 943.769897,799.396240 
	C944.325562,797.519348 943.355225,793.808838 941.953430,793.074768 
	C940.087280,792.097656 936.513977,792.363586 934.771118,793.618835 
	C931.805420,795.754883 932.911316,798.881165 935.763367,801.840942 
M490.841522,971.068665 
	C489.379578,972.964233 486.892792,974.759521 486.695068,976.778870 
	C486.396240,979.830994 489.020569,982.463867 492.106903,981.665466 
	C494.322510,981.092285 497.237366,978.562561 497.599487,976.510315 
	C498.239899,972.880798 495.379395,970.982483 490.841522,971.068665 
M349.919159,295.740540 
	C348.329895,297.756409 345.930450,299.601807 345.456879,301.852417 
	C345.175262,303.190735 347.601166,305.923187 349.383789,306.684204 
	C352.284607,307.922546 354.802643,306.558624 355.760559,303.219513 
	C356.943176,299.096985 355.547363,297.012421 349.919159,295.740540 
M734.915161,962.928528 
	C729.926941,963.111755 726.783997,966.161194 728.558777,969.586731 
	C729.524963,971.451660 732.242004,973.762024 733.892883,973.564148 
	C735.790955,973.336670 737.860291,970.831116 739.001465,968.828552 
	C740.893677,965.508301 737.859741,964.342651 734.915161,962.928528 
M330.504211,324.843140 
	C331.433044,324.507294 332.444824,324.309570 333.275848,323.810760 
	C336.225159,322.040344 337.065369,319.249420 335.034637,316.668976 
	C333.771851,315.064423 331.018677,313.442474 329.214478,313.710876 
	C325.828461,314.214569 324.345184,317.435730 325.317291,320.582336 
	C325.839325,322.272156 328.212433,323.390137 330.504211,324.843140 
M976.539917,511.960449 
	C979.917542,514.415405 983.192261,513.641235 984.793152,510.282745 
	C985.628601,508.530060 984.804993,505.165009 983.493408,503.507202 
	C982.656860,502.449951 979.064453,502.379517 977.570312,503.287018 
	C974.548340,505.122528 972.951355,508.068665 976.539917,511.960449 
M893.296875,345.915466 
	C896.831665,344.787903 898.736694,342.014313 897.483887,338.821075 
	C896.712891,336.855896 893.689392,334.794159 891.569397,334.673584 
	C890.088074,334.589325 887.475342,337.507324 887.043030,339.455933 
	C886.195618,343.275543 888.795898,345.370239 893.296875,345.915466 
M543.262512,992.526917 
	C546.427734,993.412231 549.706604,993.121277 550.596191,989.746033 
	C551.114258,987.780457 550.015259,984.542236 548.489929,983.082275 
	C546.184143,980.875366 543.237427,981.758301 541.213501,984.379883 
	C538.859314,987.429138 540.043640,989.881348 543.262512,992.526917 
M905.041077,357.593109 
	C902.813110,361.290039 903.790771,364.634644 907.335693,366.276825 
	C908.896729,367.000000 912.280762,365.882782 913.568909,364.456055 
	C914.654907,363.253296 914.713867,359.921326 913.802124,358.368622 
	C911.941406,355.199524 908.703369,355.398407 905.041077,357.593109 
M984.587524,693.352478 
	C980.679565,689.818359 977.769348,689.831665 975.116028,693.473267 
	C972.838623,696.598938 974.007080,699.284729 976.836060,701.013306 
	C978.125427,701.801208 981.154419,702.017944 981.736389,701.245178 
	C983.257446,699.225403 983.864563,696.517395 984.587524,693.352478 
M225.458511,690.042419 
	C221.047653,688.137695 217.735596,688.935303 216.403839,692.507751 
	C215.085159,696.045105 216.859955,698.533386 220.146439,699.358459 
	C221.694351,699.747009 223.961929,698.969238 225.344604,697.956787 
	C228.106064,695.934814 227.822327,693.192932 225.458511,690.042419 
M271.037872,818.634216 
	C271.746246,822.803833 275.133972,825.495544 278.466339,823.621887 
	C280.261078,822.612732 281.426453,819.253784 281.498413,816.912781 
	C281.536285,815.680786 278.231842,813.032166 277.105347,813.355164 
	C274.850861,814.001648 273.056427,816.252319 271.037872,818.634216 
M963.202332,743.068359 
	C961.494385,743.712830 959.120850,743.867371 958.212891,745.100769 
	C956.133240,747.925842 956.396912,751.088318 959.658264,753.135864 
	C962.786438,755.099854 965.622253,753.907654 967.191833,750.999268 
	C969.088684,747.484253 967.735535,744.694519 963.202332,743.068359 
M876.018982,316.639343 
	C872.597717,314.693359 869.976318,315.753326 868.098267,318.925232 
	C866.126587,322.255432 868.424500,324.750031 870.783264,325.839294 
	C872.479431,326.622559 875.799866,326.027466 877.243835,324.747650 
	C879.804138,322.478363 879.593140,319.420410 876.018982,316.639343 
M913.804321,840.956238 
	C912.358093,838.230957 910.262146,836.181885 907.062378,837.304260 
	C905.487061,837.856812 903.612610,839.565918 903.229675,841.091980 
	C902.425293,844.297546 903.709961,847.043640 907.346130,847.849731 
	C910.858765,848.628540 913.209595,846.372192 913.804321,840.956238 
M925.882446,825.512756 
	C927.217163,823.493896 929.160217,821.604492 929.629211,819.401428 
	C929.862366,818.305908 927.634827,815.885498 926.091797,815.384399 
	C923.138489,814.425232 919.964844,814.674194 919.102783,818.726807 
	C918.268677,822.648010 920.487610,825.181946 925.882446,825.512756 
M292.727142,354.084412 
	C287.977844,356.561676 286.416138,359.552155 289.080597,362.197906 
	C290.658112,363.764374 293.596436,364.635498 295.867371,364.537323 
	C296.964783,364.489838 298.631927,361.558472 298.813904,359.805511 
	C299.172577,356.350739 296.902710,354.484894 292.727142,354.084412 
M323.205933,880.825439 
	C324.532501,882.829895 325.469635,885.488525 327.330109,886.596252 
	C328.465851,887.272400 331.594238,886.102234 332.815918,884.807068 
	C335.052551,882.435791 335.256378,879.399841 332.189209,877.177002 
	C328.968781,874.843018 326.066193,875.892212 323.205933,880.825439 
M876.155273,879.593445 
	C873.784363,878.874695 870.961487,877.044250 869.177795,877.769531 
	C867.594055,878.413513 865.972046,882.299805 866.554565,884.009705 
	C867.154419,885.770691 870.553833,887.862366 872.453186,887.623291 
	C876.159912,887.156616 877.764221,884.147217 876.155273,879.593445 
M316.815094,337.907349 
	C315.521759,334.846405 313.311615,332.823761 309.987549,334.101837 
	C308.372406,334.722870 306.070435,337.141052 306.312531,338.264557 
	C306.820007,340.619995 308.444031,344.070679 310.258392,344.534729 
	C314.215088,345.546661 316.545471,342.759369 316.815094,337.907349 
M441.530029,951.492920 
	C437.939972,952.382751 434.392426,953.887878 435.990540,958.282959 
	C436.700562,960.235596 439.974609,962.661194 441.770538,962.429993 
	C443.674774,962.184875 446.107483,959.274780 446.670380,957.103638 
	C447.365326,954.423096 445.455719,952.092957 441.530029,951.492920 
M212.091675,591.810913 
	C213.365829,589.763000 215.381851,587.802979 215.638962,585.634460 
	C215.795975,584.309937 213.395020,581.643555 211.878143,581.426025 
	C210.040451,581.162415 207.321808,582.325684 206.048660,583.794189 
	C203.131958,587.158569 205.848297,591.131836 212.091675,591.810913 
M705.986389,971.187561 
	C704.759216,973.267151 702.085815,975.949890 702.642761,977.285339 
	C703.484375,979.303345 706.579590,981.493347 708.714233,981.490417 
	C710.276855,981.488281 712.976868,978.178955 713.150208,976.169434 
	C713.481323,972.329651 710.359314,970.980286 705.986389,971.187561 
M309.639496,866.963989 
	C311.403076,865.647827 314.551117,864.390137 314.609711,863.002014 
	C314.700439,860.854309 313.172302,857.886108 311.379486,856.681824 
	C310.230957,855.910278 306.901489,857.134460 305.378387,858.434753 
	C302.305847,861.057617 303.835510,864.461853 309.639496,866.963989 
M240.699066,741.448975 
	C238.495071,741.958618 235.536255,741.761597 234.252502,743.132812 
	C231.952484,745.589539 232.579041,748.683655 235.460724,750.859741 
	C238.040436,752.807922 240.404602,752.282104 242.458237,749.985840 
	C245.230804,746.885742 244.123749,744.282898 240.699066,741.448975 
M920.188477,384.997070 
	C922.161682,387.992065 924.764954,390.435211 928.205627,387.883179 
	C929.743469,386.742554 931.082581,383.152100 930.379150,381.723694 
	C929.498901,379.936249 926.479431,378.388672 924.284302,378.244354 
	C920.568237,378.000000 920.204651,381.284546 920.188477,384.997070 
M252.190109,433.918732 
	C253.411209,431.713501 255.617279,429.461945 255.516495,427.318878 
	C255.446136,425.822449 252.177826,423.323181 250.411102,423.384369 
	C248.648911,423.445404 246.293823,425.828308 245.421356,427.748718 
	C243.980988,430.919250 246.559586,433.328308 252.190109,433.918732 
M236.610779,448.990509 
	C233.147110,452.865692 232.869308,456.581970 236.334763,457.862213 
	C238.257095,458.572327 241.235779,458.274872 242.917618,457.175751 
	C244.176483,456.353088 245.021622,453.199799 244.464798,451.656555 
	C243.370834,448.624634 240.693771,447.142700 236.610779,448.990509 
M976.400757,477.035858 
	C972.423035,474.792206 969.123962,475.893921 967.390137,479.800171 
	C965.864319,483.237732 968.162170,485.643799 971.362854,486.458496 
	C972.784363,486.820312 975.638855,486.101501 976.005066,485.159149 
	C976.897400,482.862427 976.716125,480.148621 976.400757,477.035858 
M223.866989,500.478577 
	C220.273315,499.404816 218.021271,500.906097 217.178421,504.342285 
	C216.480865,507.186127 217.177628,509.580872 220.385971,510.631836 
	C223.653137,511.702026 226.116364,510.374756 227.449402,507.650940 
	C228.919708,504.646667 227.687836,502.195404 223.866989,500.478577 
M988.042908,584.499878 
	C985.010864,587.166626 985.310913,590.486389 987.831482,592.701599 
	C989.120117,593.834229 992.859375,593.738281 994.347961,592.643433 
	C995.828125,591.554810 996.970032,588.086365 996.315735,586.429443 
	C995.086731,583.317017 992.164246,581.742126 988.042908,584.499878 
M989.908203,610.189331 
	C988.634094,612.236938 986.617920,614.196594 986.361023,616.364685 
	C986.204102,617.689209 988.605042,620.355042 990.122375,620.572937 
	C991.959717,620.836792 994.678711,619.674133 995.951538,618.205872 
	C998.867981,614.841797 996.151978,610.869568 989.908203,610.189331 
M207.047791,609.492615 
	C206.613861,611.689575 205.274689,614.233643 205.953430,616.004028 
	C207.031403,618.815735 210.257736,620.280151 212.852966,618.243347 
	C214.495880,616.953979 216.011642,613.591431 215.458496,611.824036 
	C214.397827,608.435242 211.412231,606.721069 207.047791,609.492615 
M211.621933,645.961304 
	C215.284836,646.071289 218.203293,644.525085 217.703918,640.722168 
	C217.441788,638.725830 214.995605,635.978210 213.092224,635.552490 
	C211.468658,635.189331 208.229034,637.227661 207.459244,638.976257 
	C206.237350,641.751770 207.134766,644.837158 211.621933,645.961304 
M986.531677,556.890137 
	C983.296814,560.541626 983.184265,563.347473 986.237488,565.514282 
	C989.363098,567.732605 992.337708,567.402466 994.111633,564.022278 
	C994.866089,562.584900 994.875183,559.445068 993.942749,558.715881 
	C992.182556,557.339355 989.495605,557.147827 986.531677,556.890137 
M351.702667,904.547485 
	C354.316406,902.338623 356.265747,899.579651 353.546936,896.610229 
	C352.231567,895.173584 348.690887,893.963501 347.423309,894.733765 
	C345.678345,895.793884 344.186218,898.868591 344.279602,901.006226 
	C344.447357,904.846375 347.864014,905.021912 351.702667,904.547485 
M365.172607,915.069580 
	C365.127991,915.727173 364.798218,916.576843 365.088959,917.008606 
	C366.239838,918.717957 367.595123,921.637695 368.855988,921.628296 
	C371.086212,921.611572 373.818481,920.234680 375.314026,918.527710 
	C376.096283,917.634705 375.314484,913.897217 374.132080,913.112549 
	C372.476990,912.014343 369.782471,912.291077 367.546356,912.369446 
	C366.820343,912.394897 366.137177,913.643677 365.172607,915.069580 
M991.057556,531.665222 
	C988.831787,529.297424 986.288696,526.628296 983.212891,529.726868 
	C981.798279,531.151978 980.898499,534.475952 981.595642,536.197937 
	C982.224854,537.752258 985.409485,539.218567 987.360291,539.090881 
	C991.212463,538.838745 992.463745,535.965515 991.057556,531.665222 
M577.927551,989.831360 
	C576.926514,986.326172 574.520203,983.957947 571.093628,985.425354 
	C569.241272,986.218628 567.412659,989.446411 567.468994,991.524536 
	C567.510010,993.039978 570.496033,995.410156 572.441345,995.726807 
	C575.591125,996.239502 578.254211,994.636902 577.927551,989.831360 
M986.643066,638.201294 
	C983.854187,640.614441 982.914795,643.739990 985.514648,646.378845 
	C986.840332,647.724487 990.583435,648.557922 991.814575,647.665283 
	C993.441162,646.486023 994.674011,643.193542 994.280396,641.156311 
	C993.648010,637.883179 990.728210,636.733398 986.643066,638.201294 
M226.001953,716.546204 
	C223.530930,718.961548 222.755539,722.107971 225.390518,724.242859 
	C226.930313,725.490417 230.579590,725.626038 232.355515,724.623840 
	C233.805542,723.805603 235.028152,720.034546 234.325333,718.501709 
	C233.013626,715.640991 230.117615,713.835388 226.001953,716.546204 
M955.254395,777.710327 
	C958.057617,772.711121 957.375549,768.608459 953.403259,768.269287 
	C951.467590,768.104065 948.767090,769.109741 947.565247,770.548218 
	C946.567810,771.742126 946.525269,774.762756 947.361938,776.233215 
	C948.837952,778.827454 951.544983,779.848572 955.254395,777.710327 
M836.533691,283.272156 
	C832.247498,279.328888 827.029175,279.824646 826.252747,284.408936 
	C825.964539,286.110504 826.482117,288.802673 827.652893,289.678040 
	C829.069824,290.737518 832.311890,291.272491 833.427673,290.374268 
	C835.151917,288.986267 835.742432,286.190033 836.533691,283.272156 
M984.729980,664.084106 
	C981.002502,665.611328 978.685059,668.268494 981.017517,672.057678 
	C981.989319,673.636536 985.303223,674.820007 987.209961,674.444641 
	C988.724243,674.146484 991.073059,670.710327 990.648315,669.538452 
	C989.863647,667.374146 987.317261,665.848450 984.729980,664.084106 
M624.989380,995.789551 
	C628.492432,996.569031 631.615417,995.544067 632.517944,992.130859 
	C632.960144,990.458557 631.567261,987.253479 630.062683,986.396606 
	C628.428650,985.465942 624.900208,985.594421 623.612122,986.787781 
	C620.786255,989.405640 621.720032,992.723816 624.989380,995.789551 
M658.547424,219.124161 
	C661.719238,217.781784 662.929016,215.307404 661.430237,212.307358 
	C660.070557,209.585770 657.274170,207.760757 654.432617,209.593475 
	C652.754456,210.675858 651.126221,213.612976 651.359131,215.481216 
	C651.747864,218.599670 654.111633,220.743408 658.547424,219.124161 
M713.010315,221.636383 
	C710.760315,221.863190 708.193970,221.520355 706.378052,222.528885 
	C705.276123,223.140915 704.616638,226.032806 705.023010,227.565079 
	C705.839355,230.642532 707.739624,232.997345 711.621399,231.134003 
	C716.087341,228.990280 716.497925,227.186707 713.010315,221.636383 
M968.811890,457.090851 
	C967.816528,455.054626 967.206848,452.622345 965.678162,451.133911 
	C964.791443,450.270538 961.844482,450.234070 960.866760,451.059662 
	C959.450562,452.255554 958.078796,454.718750 958.353271,456.363495 
	C958.632568,458.037109 960.870178,460.503601 962.357239,460.581512 
	C964.359375,460.686462 966.463928,458.836609 968.811890,457.090851 
M210.473557,669.754517 
	C212.768356,670.915161 215.134521,673.135925 217.341141,672.987305 
	C220.622864,672.766296 221.847229,669.410522 220.709076,666.557495 
	C220.002075,664.785278 217.472534,662.448242 215.930344,662.566833 
	C212.593750,662.823303 209.644379,664.731873 210.473557,669.754517 
M211.197906,564.121399 
	C215.063782,565.596619 217.272797,563.119690 217.524933,560.155945 
	C217.688934,558.228210 215.725464,555.291565 213.904190,554.307190 
	C212.640289,553.623962 209.204773,554.905212 208.134232,556.345520 
	C205.919952,559.324585 207.026810,562.224243 211.197906,564.121399 
M214.909561,527.188049 
	C211.208450,528.798035 209.756699,531.666077 211.963120,535.035034 
	C212.924820,536.503479 216.325546,537.953491 217.527679,537.325012 
	C219.455841,536.317078 221.968185,533.103271 221.518509,531.678650 
	C220.902405,529.726685 217.746719,528.576355 214.909561,527.188049 
M855.751831,307.495758 
	C858.611694,305.271942 859.127380,302.072968 856.823059,299.841156 
	C855.343384,298.407928 851.948303,298.092651 849.733154,298.621765 
	C848.530273,298.909088 847.150208,302.106628 847.342468,303.824463 
	C847.746704,307.436005 850.762756,308.206696 854.024170,307.927002 
	C854.351379,307.898926 854.676147,307.843750 855.751831,307.495758 
M601.241028,996.918213 
	C604.926331,996.157532 605.691711,993.288025 604.697266,990.523865 
	C604.051514,988.728760 601.557617,986.288818 600.101318,986.422363 
	C598.222168,986.594727 595.943604,988.719849 594.929688,990.594849 
	C593.257019,993.688354 595.755249,996.312012 601.241028,996.918213 
M630.336670,216.895157 
	C631.788574,214.788147 633.913269,212.824371 634.405334,210.513031 
	C634.647156,209.377243 631.965942,206.532578 630.423035,206.384491 
	C628.587463,206.208344 625.954590,207.630478 624.735535,209.193390 
	C622.469971,212.098083 624.363037,214.816147 630.336670,216.895157 
M571.781860,215.852997 
	C576.202759,217.444122 579.928955,215.860519 579.754944,212.019318 
	C579.668457,210.109314 578.147339,207.277405 576.588989,206.693359 
	C574.971497,206.087128 572.026794,207.137085 570.555176,208.457565 
	C568.204407,210.566895 569.040710,213.256775 571.781860,215.852997 
M597.408081,208.357346 
	C596.733521,211.606766 596.359497,215.206604 600.627136,215.673203 
	C602.641785,215.893433 605.547058,214.242157 606.820801,212.526993 
	C607.543274,211.554123 606.304138,208.265396 605.027161,206.852142 
	C602.641907,204.212341 600.023010,205.360992 597.408081,208.357346 
z"/>
<path fill="#F2746B" opacity="1.000000" stroke="none" 
	d="
M651.817383,645.148682 
	C658.569092,653.915894 665.104492,662.401733 672.425903,671.908142 
	C672.425903,638.650391 672.425903,606.921631 672.425903,575.192871 
	C672.425903,543.578247 672.425903,511.963654 672.425903,480.126678 
	C682.472595,480.126678 691.886047,480.126678 701.955322,480.126678 
	C701.955322,482.220642 701.955322,483.996246 701.955322,485.771851 
	C701.955322,564.760681 701.915833,643.749512 702.053345,722.738098 
	C702.061584,727.476624 700.718933,728.476257 696.000977,729.075317 
	C682.275940,730.818176 674.021790,724.501587 666.046570,713.961548 
	C622.322998,656.176819 577.964417,598.872742 533.813599,541.411438 
	C532.836304,540.139465 531.736816,538.961365 530.101562,537.044556 
	C529.768616,538.945190 529.428772,539.975220 529.430664,541.004578 
	C529.541138,601.992004 529.657776,662.979431 529.870361,723.966553 
	C529.883118,727.624329 528.706421,729.028259 524.973694,728.914246 
	C517.981201,728.700500 510.975677,728.758240 503.979492,728.898071 
	C501.185669,728.953979 499.918518,727.999878 500.199341,725.164124 
	C500.281036,724.339172 500.207520,723.498962 500.207520,722.665771 
	C500.207336,643.676941 500.207367,564.688171 500.207397,485.699371 
	C500.207397,484.053162 500.207397,482.406921 500.207397,479.532532 
	C508.071960,479.915497 515.643250,479.897339 523.083862,480.874298 
	C525.417725,481.180756 527.831848,483.831879 529.480103,485.971466 
	C570.246643,538.890930 610.915100,591.885864 651.817383,645.148682 
z"/>
<path fill="#000000" opacity="1.000000" stroke="none" 
	d="
M463.721924,973.005249 
	C460.018005,971.157410 459.151886,968.269165 460.714142,965.107239 
	C462.215698,962.068237 465.424896,960.923218 468.260529,962.511169 
	C470.005920,963.488586 471.905670,966.432251 471.676971,968.231262 
	C471.184265,972.106628 468.131500,973.808716 463.721924,973.005249 
z"/>
<path fill="#000000" opacity="1.000000" stroke="none" 
	d="
M416.436279,250.124817 
	C422.768036,250.374252 425.729279,254.207413 423.098236,258.407410 
	C421.449188,261.039856 419.189087,262.999908 415.798157,260.866211 
	C412.689301,258.910004 410.733185,256.457336 413.196472,252.766983 
	C413.887451,251.731750 415.080444,251.031601 416.436279,250.124817 
z"/>
<path fill="#000000" opacity="1.000000" stroke="none" 
	d="
M787.202759,941.907471 
	C789.943237,947.588074 788.371338,952.046814 783.769043,951.757507 
	C781.707458,951.627808 778.961426,949.990051 778.029480,948.237305 
	C777.293030,946.852295 778.322449,943.840820 779.516052,942.274231 
	C781.432861,939.758362 784.251038,939.471497 787.202759,941.907471 
z"/>
<path fill="#000000" opacity="1.000000" stroke="none" 
	d="
M829.099976,911.195679 
	C831.422546,913.084900 833.815552,914.766235 835.109009,917.066040 
	C835.633911,917.999390 834.197876,920.859680 832.897888,921.829529 
	C829.894348,924.070435 826.908630,923.216919 824.814941,920.120361 
	C822.632690,916.892822 824.093506,913.709656 829.099976,911.195679 
z"/>
<path fill="#000000" opacity="1.000000" stroke="none" 
	d="
M463.716644,229.817108 
	C466.825989,226.753250 469.478424,226.310059 472.308868,229.755386 
	C474.297516,232.176010 474.664398,234.355148 472.626190,236.823807 
	C470.254059,239.696930 467.341125,239.655945 464.702698,237.683441 
	C462.134338,235.763336 460.803619,233.114410 463.716644,229.817108 
z"/>
<path fill="#000000" opacity="1.000000" stroke="none" 
	d="
M398.543701,273.636993 
	C395.184326,275.674469 392.167145,275.262054 390.471069,272.366150 
	C389.561371,270.812958 389.640900,267.871368 390.535065,266.253021 
	C392.018890,263.567535 394.718750,261.609222 397.921326,264.153992 
	C401.248260,266.797607 402.105499,269.977020 398.543701,273.636993 
z"/>
<path fill="#000000" opacity="1.000000" stroke="none" 
	d="
M368.535126,280.300049 
	C371.583893,278.649689 374.457977,278.159363 376.312256,281.044495 
	C377.304504,282.588318 377.945892,285.255341 377.280487,286.773254 
	C376.032227,289.620972 373.858917,292.224426 369.937012,289.946716 
	C366.369232,287.874664 365.706085,284.495941 368.535126,280.300049 
z"/>
<path fill="#000000" opacity="1.000000" stroke="none" 
	d="
M787.304199,261.698120 
	C785.320312,261.681396 783.421997,262.024109 782.147217,261.287567 
	C779.287170,259.635162 777.959839,257.014557 779.776062,253.749512 
	C781.578613,250.509018 784.803345,250.203003 787.515686,251.548996 
	C790.260559,252.911163 791.956909,255.635147 789.916016,258.980011 
	C789.329590,259.941071 788.429138,260.710480 787.304199,261.698120 
z"/>
<path fill="#000000" opacity="1.000000" stroke="none" 
	d="
M419.067383,939.742371 
	C419.713867,940.346069 420.134918,940.655823 420.391113,941.068054 
	C422.190643,943.963379 423.242584,947.148743 419.872009,949.347900 
	C418.313934,950.364441 414.686523,950.788940 413.901398,949.864502 
	C412.347961,948.035828 411.067963,944.827271 411.595398,942.655518 
	C412.331604,939.623962 415.294525,938.140686 419.067383,939.742371 
z"/>
<path fill="#000000" opacity="1.000000" stroke="none" 
	d="
M804.841431,937.343506 
	C801.127197,935.690247 800.113220,933.174438 801.687927,929.926758 
	C803.302795,926.596375 806.637207,926.158997 809.298950,927.547241 
	C810.989685,928.429077 812.766235,931.500000 812.498657,933.289246 
	C811.954834,936.926270 809.273804,938.965759 804.841431,937.343506 
z"/>
<path fill="#000000" opacity="1.000000" stroke="none" 
	d="
M808.819458,264.599762 
	C812.602966,265.479858 815.178833,267.213135 814.265381,271.130798 
	C813.458679,274.590424 810.970459,276.761597 807.249512,275.755219 
	C803.960876,274.865753 802.074585,272.029633 803.277283,268.855499 
	C803.977051,267.008789 806.674988,265.919250 808.819458,264.599762 
z"/>
<path fill="#000000" opacity="1.000000" stroke="none" 
	d="
M684.790405,986.683350 
	C681.739197,990.255249 679.198059,988.642151 676.995422,986.336304 
	C674.729797,983.964539 674.531860,981.576294 677.324585,979.103821 
	C679.773071,976.936218 682.067505,976.030701 684.747742,978.339905 
	C687.680176,980.866394 687.920471,983.611633 684.790405,986.683350 
z"/>
<path fill="#000000" opacity="1.000000" stroke="none" 
	d="
M734.525696,228.749786 
	C738.707886,228.275726 740.758972,230.052231 740.950623,233.862228 
	C741.112366,237.077972 739.695801,239.858551 736.435059,239.682449 
	C734.299683,239.567108 731.267639,237.788010 730.435486,235.943008 
	C729.070557,232.916702 729.996277,229.690094 734.525696,228.749786 
z"/>
<path fill="#000000" opacity="1.000000" stroke="none" 
	d="
M542.146729,214.759979 
	C543.487915,208.831970 547.307922,206.341965 550.435242,209.201324 
	C551.931274,210.569183 553.584167,213.281097 553.163940,214.846909 
	C552.635193,216.816849 549.898865,219.707199 548.400330,219.546204 
	C546.199158,219.309677 544.250549,216.723267 542.146729,214.759979 
z"/>
<path fill="#000000" opacity="1.000000" stroke="none" 
	d="
M490.320312,228.780426 
	C487.261322,225.430817 488.307526,222.790970 491.146576,220.538696 
	C493.566559,218.618835 496.621643,218.507004 498.071655,221.082199 
	C499.204742,223.094543 499.617188,226.744049 498.507080,228.503403 
	C496.783600,231.234818 493.461151,232.302353 490.320312,228.780426 
z"/>
<path fill="#000000" opacity="1.000000" stroke="none" 
	d="
M398.273010,933.302307 
	C395.570312,936.969543 391.146332,938.272034 388.937805,936.102966 
	C386.444061,933.653687 386.300598,930.493225 388.720581,928.196716 
	C390.075867,926.910706 392.893555,926.192566 394.732513,926.613953 
	C397.598907,927.270813 399.484100,929.514282 398.273010,933.302307 
z"/>
<path fill="#000000" opacity="1.000000" stroke="none" 
	d="
M688.311646,221.220657 
	C685.611694,222.587296 683.109619,224.326004 680.596680,224.341629 
	C679.476501,224.348618 677.085022,220.527084 677.500793,219.087280 
	C678.098145,217.018967 680.448669,214.733017 682.561829,213.986359 
	C686.260437,212.679504 688.852661,216.005142 688.311646,221.220657 
z"/>
<path fill="#000000" opacity="1.000000" stroke="none" 
	d="
M526.547363,219.691864 
	C523.272522,225.146576 519.518494,226.483337 516.793335,222.855911 
	C515.527771,221.171295 515.392212,217.393143 516.439758,215.504227 
	C518.050415,212.599854 521.421143,212.303131 524.057556,214.800217 
	C525.279724,215.957764 525.836487,217.817810 526.547363,219.691864 
z"/>
<path fill="#000000" opacity="1.000000" stroke="none" 
	d="
M759.003540,963.900635 
	C752.941467,961.638550 751.159729,956.993530 755.088501,954.226807 
	C756.566162,953.186340 759.328613,952.505981 760.738220,953.205994 
	C762.477051,954.069458 764.786926,956.968628 764.396790,958.228271 
	C763.716370,960.425171 761.160095,962.041077 759.003540,963.900635 
z"/>
<path fill="#000000" opacity="1.000000" stroke="none" 
	d="
M655.297607,993.002930 
	C650.562500,993.928589 648.431702,990.905640 648.489563,987.663818 
	C648.523193,985.778442 651.424377,983.143372 653.602478,982.285400 
	C656.843567,981.008484 658.762573,983.743591 659.642578,986.579285 
	C660.714600,990.033447 658.240723,991.606750 655.297607,993.002930 
z"/>
<path fill="#000000" opacity="1.000000" stroke="none" 
	d="
M447.992615,246.854050 
	C445.697357,247.837021 442.861298,249.609787 441.549347,248.827271 
	C439.598663,247.663803 438.725525,244.693695 437.393829,242.492447 
	C439.752350,241.097672 442.321320,238.299561 444.423401,238.614807 
	C448.216736,239.183701 449.997803,242.389725 447.992615,246.854050 
z"/>
<path fill="#000000" opacity="1.000000" stroke="none" 
	d="
M846.296753,902.408691 
	C845.573608,897.999207 847.425415,895.533752 851.344299,895.139832 
	C854.626404,894.809814 856.699524,896.730652 856.894104,900.082764 
	C857.090759,903.468750 855.554749,906.306885 852.039246,906.231750 
	C850.143860,906.191162 848.294556,903.997803 846.296753,902.408691 
z"/>
<path fill="#000000" opacity="1.000000" stroke="none" 
	d="
M975.001587,727.315918 
	C968.417480,728.357056 964.504395,725.267456 966.713928,721.049866 
	C967.623169,719.314331 970.058105,717.424500 971.849121,717.373718 
	C973.627014,717.323303 976.477966,719.166626 977.006348,720.784302 
	C977.570496,722.511475 975.967651,724.946411 975.001587,727.315918 
z"/>
<path fill="#000000" opacity="1.000000" stroke="none" 
	d="
M258.394836,791.206421 
	C261.772064,789.040771 264.724518,789.916504 266.576569,792.450989 
	C267.527496,793.752197 267.583984,796.841248 266.655884,798.090515 
	C265.528748,799.607666 262.916473,800.825256 260.982635,800.775513 
	C256.676666,800.664673 255.398514,796.058411 258.394836,791.206421 
z"/>
<path fill="#000000" opacity="1.000000" stroke="none" 
	d="
M293.706665,846.536255 
	C287.668488,844.719666 285.308929,841.379456 287.774902,838.143616 
	C288.957672,836.591614 291.690918,835.092529 293.404541,835.391174 
	C295.118683,835.689819 297.125366,838.022339 297.772003,839.889893 
	C298.819489,842.914917 297.167816,845.285095 293.706665,846.536255 
z"/>
<path fill="#000000" opacity="1.000000" stroke="none" 
	d="
M228.436279,474.123169 
	C232.930618,473.463409 235.574646,475.699738 235.543152,479.320251 
	C235.527069,481.169006 232.680740,484.368195 230.960373,484.474426 
	C228.870621,484.603455 225.815781,482.603821 224.622787,480.645294 
	C222.752563,477.575012 225.499359,475.634125 228.436279,474.123169 
z"/>
<path fill="#000000" opacity="1.000000" stroke="none" 
	d="
M245.797607,775.095337 
	C245.490738,772.270874 244.848572,769.492065 245.679642,767.262390 
	C246.077835,766.194153 249.441406,765.416321 251.153259,765.819092 
	C254.931503,766.707947 255.697388,769.877930 254.656921,773.251770 
	C253.692368,776.379456 249.908691,777.186768 245.797607,775.095337 
z"/>
<path fill="#000000" opacity="1.000000" stroke="none" 
	d="
M948.184570,434.580505 
	C946.365662,429.243317 947.510193,426.113922 951.500305,425.397766 
	C955.084778,424.754456 957.300232,426.996979 957.679504,430.173981 
	C957.885132,431.896271 956.762573,434.278473 955.455200,435.568695 
	C953.200195,437.794220 950.627014,436.792847 948.184570,434.580505 
z"/>
<path fill="#000000" opacity="1.000000" stroke="none" 
	d="
M885.299072,864.435791 
	C884.601196,860.354126 886.206299,857.428284 889.781982,857.364807 
	C891.783020,857.329346 894.687073,859.481567 895.647949,861.412537 
	C896.958252,864.045715 895.816040,866.999023 892.520325,868.122864 
	C889.180969,869.261719 886.862732,867.898560 885.299072,864.435791 
z"/>
<path fill="#000000" opacity="1.000000" stroke="none" 
	d="
M934.373962,408.461304 
	C934.035034,404.607147 935.199280,401.500702 938.906189,401.285187 
	C940.888672,401.169952 943.970581,402.740601 944.767517,404.406311 
	C945.531677,406.003448 944.667236,409.583313 943.261292,410.679840 
	C941.827759,411.797913 938.842529,411.129181 936.580078,410.867340 
	C935.827942,410.780273 935.210266,409.531158 934.373962,408.461304 
z"/>
<path fill="#000000" opacity="1.000000" stroke="none" 
	d="
M279.327698,386.996490 
	C275.779694,387.362427 272.444794,386.774200 272.317963,383.189209 
	C272.238220,380.935089 273.982819,377.642731 275.880219,376.622650 
	C277.223480,375.900452 281.134155,377.596985 282.221436,379.290619 
	C283.987030,382.040894 283.593567,385.395935 279.327698,386.996490 
z"/>
<path fill="#000000" opacity="1.000000" stroke="none" 
	d="
M757.426697,249.571793 
	C756.463379,247.585388 755.089661,245.693253 755.329651,244.034637 
	C755.802124,240.769791 758.259583,238.701981 761.669800,239.226456 
	C765.609436,239.832367 766.532166,243.012817 765.818604,246.362991 
	C765.171387,249.401443 763.055420,251.105988 759.651428,250.296722 
	C759.010803,250.144440 758.380798,249.947815 757.426697,249.571793 
z"/>
<path fill="#000000" opacity="1.000000" stroke="none" 
	d="
M265.390564,409.691589 
	C261.756897,410.365082 258.647736,409.923676 257.903534,406.265625 
	C257.568756,404.620056 258.512604,402.088287 259.764404,400.874725 
	C262.477325,398.244720 265.758453,398.671539 267.937347,401.688934 
	C270.221191,404.851746 268.968231,407.611572 265.390564,409.691589 
z"/>
<path fill="#000000" opacity="1.000000" stroke="none" 
	d="
M520.041870,987.863098 
	C516.409424,988.910828 514.023071,987.821350 513.170776,984.528442 
	C512.303528,981.177856 513.739014,978.119324 516.956604,977.451294 
	C518.816956,977.065063 522.018799,978.479980 523.120667,980.101257 
	C525.214111,983.181641 523.797791,986.085266 520.041870,987.863098 
z"/>
<path fill="#000000" opacity="1.000000" stroke="none" 
	d="
M935.444214,801.629639 
	C932.911316,798.881165 931.805420,795.754883 934.771118,793.618835 
	C936.513977,792.363586 940.087280,792.097656 941.953430,793.074768 
	C943.355225,793.808838 944.325562,797.519348 943.769897,799.396240 
	C942.574707,803.434021 939.249084,803.626099 935.444214,801.629639 
z"/>
<path fill="#000000" opacity="1.000000" stroke="none" 
	d="
M491.231476,971.052002 
	C495.379395,970.982483 498.239899,972.880798 497.599487,976.510315 
	C497.237366,978.562561 494.322510,981.092285 492.106903,981.665466 
	C489.020569,982.463867 486.396240,979.830994 486.695068,976.778870 
	C486.892792,974.759521 489.379578,972.964233 491.231476,971.052002 
z"/>
<path fill="#000000" opacity="1.000000" stroke="none" 
	d="
M350.267883,295.653961 
	C355.547363,297.012421 356.943176,299.096985 355.760559,303.219513 
	C354.802643,306.558624 352.284607,307.922546 349.383789,306.684204 
	C347.601166,305.923187 345.175262,303.190735 345.456879,301.852417 
	C345.930450,299.601807 348.329895,297.756409 350.267883,295.653961 
z"/>
<path fill="#000000" opacity="1.000000" stroke="none" 
	d="
M735.260498,962.987122 
	C737.859741,964.342651 740.893677,965.508301 739.001465,968.828552 
	C737.860291,970.831116 735.790955,973.336670 733.892883,973.564148 
	C732.242004,973.762024 729.524963,971.451660 728.558777,969.586731 
	C726.783997,966.161194 729.926941,963.111755 735.260498,962.987122 
z"/>
<path fill="#000000" opacity="1.000000" stroke="none" 
	d="
M330.127228,324.804626 
	C328.212433,323.390137 325.839325,322.272156 325.317291,320.582336 
	C324.345184,317.435730 325.828461,314.214569 329.214478,313.710876 
	C331.018677,313.442474 333.771851,315.064423 335.034637,316.668976 
	C337.065369,319.249420 336.225159,322.040344 333.275848,323.810760 
	C332.444824,324.309570 331.433044,324.507294 330.127228,324.804626 
z"/>
<path fill="#000000" opacity="1.000000" stroke="none" 
	d="
M976.286926,511.711090 
	C972.951355,508.068665 974.548340,505.122528 977.570312,503.287018 
	C979.064453,502.379517 982.656860,502.449951 983.493408,503.507202 
	C984.804993,505.165009 985.628601,508.530060 984.793152,510.282745 
	C983.192261,513.641235 979.917542,514.415405 976.286926,511.711090 
z"/>
<path fill="#000000" opacity="1.000000" stroke="none" 
	d="
M892.915039,345.930542 
	C888.795898,345.370239 886.195618,343.275543 887.043030,339.455933 
	C887.475342,337.507324 890.088074,334.589325 891.569397,334.673584 
	C893.689392,334.794159 896.712891,336.855896 897.483887,338.821075 
	C898.736694,342.014313 896.831665,344.787903 892.915039,345.930542 
z"/>
<path fill="#000000" opacity="1.000000" stroke="none" 
	d="
M542.953979,992.282104 
	C540.043640,989.881348 538.859314,987.429138 541.213501,984.379883 
	C543.237427,981.758301 546.184143,980.875366 548.489929,983.082275 
	C550.015259,984.542236 551.114258,987.780457 550.596191,989.746033 
	C549.706604,993.121277 546.427734,993.412231 542.953979,992.282104 
z"/>
<path fill="#000000" opacity="1.000000" stroke="none" 
	d="
M905.327271,357.308716 
	C908.703369,355.398407 911.941406,355.199524 913.802124,358.368622 
	C914.713867,359.921326 914.654907,363.253296 913.568909,364.456055 
	C912.280762,365.882782 908.896729,367.000000 907.335693,366.276825 
	C903.790771,364.634644 902.813110,361.290039 905.327271,357.308716 
z"/>
<path fill="#000000" opacity="1.000000" stroke="none" 
	d="
M984.711792,693.718140 
	C983.864563,696.517395 983.257446,699.225403 981.736389,701.245178 
	C981.154419,702.017944 978.125427,701.801208 976.836060,701.013306 
	C974.007080,699.284729 972.838623,696.598938 975.116028,693.473267 
	C977.769348,689.831665 980.679565,689.818359 984.711792,693.718140 
z"/>
<path fill="#000000" opacity="1.000000" stroke="none" 
	d="
M225.708191,690.292114 
	C227.822327,693.192932 228.106064,695.934814 225.344604,697.956787 
	C223.961929,698.969238 221.694351,699.747009 220.146439,699.358459 
	C216.859955,698.533386 215.085159,696.045105 216.403839,692.507751 
	C217.735596,688.935303 221.047653,688.137695 225.708191,690.292114 
z"/>
<path fill="#000000" opacity="1.000000" stroke="none" 
	d="
M271.054932,818.237427 
	C273.056427,816.252319 274.850861,814.001648 277.105347,813.355164 
	C278.231842,813.032166 281.536285,815.680786 281.498413,816.912781 
	C281.426453,819.253784 280.261078,822.612732 278.466339,823.621887 
	C275.133972,825.495544 271.746246,822.803833 271.054932,818.237427 
z"/>
<path fill="#000000" opacity="1.000000" stroke="none" 
	d="
M963.600464,743.119141 
	C967.735535,744.694519 969.088684,747.484253 967.191833,750.999268 
	C965.622253,753.907654 962.786438,755.099854 959.658264,753.135864 
	C956.396912,751.088318 956.133240,747.925842 958.212891,745.100769 
	C959.120850,743.867371 961.494385,743.712830 963.600464,743.119141 
z"/>
<path fill="#000000" opacity="1.000000" stroke="none" 
	d="
M876.293823,316.874237 
	C879.593140,319.420410 879.804138,322.478363 877.243835,324.747650 
	C875.799866,326.027466 872.479431,326.622559 870.783264,325.839294 
	C868.424500,324.750031 866.126587,322.255432 868.098267,318.925232 
	C869.976318,315.753326 872.597717,314.693359 876.293823,316.874237 
z"/>
<path fill="#000000" opacity="1.000000" stroke="none" 
	d="
M913.859985,841.342468 
	C913.209595,846.372192 910.858765,848.628540 907.346130,847.849731 
	C903.709961,847.043640 902.425293,844.297546 903.229675,841.091980 
	C903.612610,839.565918 905.487061,837.856812 907.062378,837.304260 
	C910.262146,836.181885 912.358093,838.230957 913.859985,841.342468 
z"/>
<path fill="#000000" opacity="1.000000" stroke="none" 
	d="
M925.523987,825.656494 
	C920.487610,825.181946 918.268677,822.648010 919.102783,818.726807 
	C919.964844,814.674194 923.138489,814.425232 926.091797,815.384399 
	C927.634827,815.885498 929.862366,818.305908 929.629211,819.401428 
	C929.160217,821.604492 927.217163,823.493896 925.523987,825.656494 
z"/>
<path fill="#000000" opacity="1.000000" stroke="none" 
	d="
M293.116821,354.070618 
	C296.902710,354.484894 299.172577,356.350739 298.813904,359.805511 
	C298.631927,361.558472 296.964783,364.489838 295.867371,364.537323 
	C293.596436,364.635498 290.658112,363.764374 289.080597,362.197906 
	C286.416138,359.552155 287.977844,356.561676 293.116821,354.070618 
z"/>
<path fill="#000000" opacity="1.000000" stroke="none" 
	d="
M323.353699,880.471497 
	C326.066193,875.892212 328.968781,874.843018 332.189209,877.177002 
	C335.256378,879.399841 335.052551,882.435791 332.815918,884.807068 
	C331.594238,886.102234 328.465851,887.272400 327.330109,886.596252 
	C325.469635,885.488525 324.532501,882.829895 323.353699,880.471497 
z"/>
<path fill="#000000" opacity="1.000000" stroke="none" 
	d="
M876.361328,879.912964 
	C877.764221,884.147217 876.159912,887.156616 872.453186,887.623291 
	C870.553833,887.862366 867.154419,885.770691 866.554565,884.009705 
	C865.972046,882.299805 867.594055,878.413513 869.177795,877.769531 
	C870.961487,877.044250 873.784363,878.874695 876.361328,879.912964 
z"/>
<path fill="#000000" opacity="1.000000" stroke="none" 
	d="
M316.859436,338.280457 
	C316.545471,342.759369 314.215088,345.546661 310.258392,344.534729 
	C308.444031,344.070679 306.820007,340.619995 306.312531,338.264557 
	C306.070435,337.141052 308.372406,334.722870 309.987549,334.101837 
	C313.311615,332.823761 315.521759,334.846405 316.859436,338.280457 
z"/>
<path fill="#000000" opacity="1.000000" stroke="none" 
	d="
M441.872467,951.611206 
	C445.455719,952.092957 447.365326,954.423096 446.670380,957.103638 
	C446.107483,959.274780 443.674774,962.184875 441.770538,962.429993 
	C439.974609,962.661194 436.700562,960.235596 435.990540,958.282959 
	C434.392426,953.887878 437.939972,952.382751 441.872467,951.611206 
z"/>
<path fill="#000000" opacity="1.000000" stroke="none" 
	d="
M211.704742,591.864258 
	C205.848297,591.131836 203.131958,587.158569 206.048660,583.794189 
	C207.321808,582.325684 210.040451,581.162415 211.878143,581.426025 
	C213.395020,581.643555 215.795975,584.309937 215.638962,585.634460 
	C215.381851,587.802979 213.365829,589.763000 211.704742,591.864258 
z"/>
<path fill="#000000" opacity="1.000000" stroke="none" 
	d="
M706.372314,971.134216 
	C710.359314,970.980286 713.481323,972.329651 713.150208,976.169434 
	C712.976868,978.178955 710.276855,981.488281 708.714233,981.490417 
	C706.579590,981.493347 703.484375,979.303345 702.642761,977.285339 
	C702.085815,975.949890 704.759216,973.267151 706.372314,971.134216 
z"/>
<path fill="#000000" opacity="1.000000" stroke="none" 
	d="
M309.242157,866.946655 
	C303.835510,864.461853 302.305847,861.057617 305.378387,858.434753 
	C306.901489,857.134460 310.230957,855.910278 311.379486,856.681824 
	C313.172302,857.886108 314.700439,860.854309 314.609711,863.002014 
	C314.551117,864.390137 311.403076,865.647827 309.242157,866.946655 
z"/>
<path fill="#000000" opacity="1.000000" stroke="none" 
	d="
M241.010895,741.696289 
	C244.123749,744.282898 245.230804,746.885742 242.458237,749.985840 
	C240.404602,752.282104 238.040436,752.807922 235.460724,750.859741 
	C232.579041,748.683655 231.952484,745.589539 234.252502,743.132812 
	C235.536255,741.761597 238.495071,741.958618 241.010895,741.696289 
z"/>
<path fill="#000000" opacity="1.000000" stroke="none" 
	d="
M920.135254,384.606018 
	C920.204651,381.284546 920.568237,378.000000 924.284302,378.244354 
	C926.479431,378.388672 929.498901,379.936249 930.379150,381.723694 
	C931.082581,383.152100 929.743469,386.742554 928.205627,387.883179 
	C924.764954,390.435211 922.161682,387.992065 920.135254,384.606018 
z"/>
<path fill="#000000" opacity="1.000000" stroke="none" 
	d="
M251.789886,433.940063 
	C246.559586,433.328308 243.980988,430.919250 245.421356,427.748718 
	C246.293823,425.828308 248.648911,423.445404 250.411102,423.384369 
	C252.177826,423.323181 255.446136,425.822449 255.516495,427.318878 
	C255.617279,429.461945 253.411209,431.713501 251.789886,433.940063 
z"/>
<path fill="#000000" opacity="1.000000" stroke="none" 
	d="
M236.917984,448.744629 
	C240.693771,447.142700 243.370834,448.624634 244.464798,451.656555 
	C245.021622,453.199799 244.176483,456.353088 242.917618,457.175751 
	C241.235779,458.274872 238.257095,458.572327 236.334763,457.862213 
	C232.869308,456.581970 233.147110,452.865692 236.917984,448.744629 
z"/>
<path fill="#000000" opacity="1.000000" stroke="none" 
	d="
M976.683960,477.319305 
	C976.716125,480.148621 976.897400,482.862427 976.005066,485.159149 
	C975.638855,486.101501 972.784363,486.820312 971.362854,486.458496 
	C968.162170,485.643799 965.864319,483.237732 967.390137,479.800171 
	C969.123962,475.893921 972.423035,474.792206 976.683960,477.319305 
z"/>
<path fill="#000000" opacity="1.000000" stroke="none" 
	d="
M224.199707,500.673462 
	C227.687836,502.195404 228.919708,504.646667 227.449402,507.650940 
	C226.116364,510.374756 223.653137,511.702026 220.385971,510.631836 
	C217.177628,509.580872 216.480865,507.186127 217.178421,504.342285 
	C218.021271,500.906097 220.273315,499.404816 224.199707,500.673462 
z"/>
<path fill="#000000" opacity="1.000000" stroke="none" 
	d="
M988.332886,584.239990 
	C992.164246,581.742126 995.086731,583.317017 996.315735,586.429443 
	C996.970032,588.086365 995.828125,591.554810 994.347961,592.643433 
	C992.859375,593.738281 989.120117,593.834229 987.831482,592.701599 
	C985.310913,590.486389 985.010864,587.166626 988.332886,584.239990 
z"/>
<path fill="#000000" opacity="1.000000" stroke="none" 
	d="
M990.295044,610.135925 
	C996.151978,610.869568 998.867981,614.841797 995.951538,618.205872 
	C994.678711,619.674133 991.959717,620.836792 990.122375,620.572937 
	C988.605042,620.355042 986.204102,617.689209 986.361023,616.364685 
	C986.617920,614.196594 988.634094,612.236938 990.295044,610.135925 
z"/>
<path fill="#000000" opacity="1.000000" stroke="none" 
	d="
M207.338348,609.233398 
	C211.412231,606.721069 214.397827,608.435242 215.458496,611.824036 
	C216.011642,613.591431 214.495880,616.953979 212.852966,618.243347 
	C210.257736,620.280151 207.031403,618.815735 205.953430,616.004028 
	C205.274689,614.233643 206.613861,611.689575 207.338348,609.233398 
z"/>
<path fill="#000000" opacity="1.000000" stroke="none" 
	d="
M211.219055,645.940308 
	C207.134766,644.837158 206.237350,641.751770 207.459244,638.976257 
	C208.229034,637.227661 211.468658,635.189331 213.092224,635.552490 
	C214.995605,635.978210 217.441788,638.725830 217.703918,640.722168 
	C218.203293,644.525085 215.284836,646.071289 211.219055,645.940308 
z"/>
<path fill="#000000" opacity="1.000000" stroke="none" 
	d="
M986.862793,556.677002 
	C989.495605,557.147827 992.182556,557.339355 993.942749,558.715881 
	C994.875183,559.445068 994.866089,562.584900 994.111633,564.022278 
	C992.337708,567.402466 989.363098,567.732605 986.237488,565.514282 
	C983.184265,563.347473 983.296814,560.541626 986.862793,556.677002 
z"/>
<path fill="#000000" opacity="1.000000" stroke="none" 
	d="
M351.339111,904.682983 
	C347.864014,905.021912 344.447357,904.846375 344.279602,901.006226 
	C344.186218,898.868591 345.678345,895.793884 347.423309,894.733765 
	C348.690887,893.963501 352.231567,895.173584 353.546936,896.610229 
	C356.265747,899.579651 354.316406,902.338623 351.339111,904.682983 
z"/>
<path fill="#000000" opacity="1.000000" stroke="none" 
	d="
M365.303528,914.701294 
	C366.137177,913.643677 366.820343,912.394897 367.546356,912.369446 
	C369.782471,912.291077 372.476990,912.014343 374.132080,913.112549 
	C375.314484,913.897217 376.096283,917.634705 375.314026,918.527710 
	C373.818481,920.234680 371.086212,921.611572 368.855988,921.628296 
	C367.595123,921.637695 366.239838,918.717957 365.088959,917.008606 
	C364.798218,916.576843 365.127991,915.727173 365.303528,914.701294 
z"/>
<path fill="#000000" opacity="1.000000" stroke="none" 
	d="
M991.292236,531.957397 
	C992.463745,535.965515 991.212463,538.838745 987.360291,539.090881 
	C985.409485,539.218567 982.224854,537.752258 981.595642,536.197937 
	C980.898499,534.475952 981.798279,531.151978 983.212891,529.726868 
	C986.288696,526.628296 988.831787,529.297424 991.292236,531.957397 
z"/>
<path fill="#000000" opacity="1.000000" stroke="none" 
	d="
M577.944946,990.227905 
	C578.254211,994.636902 575.591125,996.239502 572.441345,995.726807 
	C570.496033,995.410156 567.510010,993.039978 567.468994,991.524536 
	C567.412659,989.446411 569.241272,986.218628 571.093628,985.425354 
	C574.520203,983.957947 576.926514,986.326172 577.944946,990.227905 
z"/>
<path fill="#000000" opacity="1.000000" stroke="none" 
	d="
M986.989441,638.064697 
	C990.728210,636.733398 993.648010,637.883179 994.280396,641.156311 
	C994.674011,643.193542 993.441162,646.486023 991.814575,647.665283 
	C990.583435,648.557922 986.840332,647.724487 985.514648,646.378845 
	C982.914795,643.739990 983.854187,640.614441 986.989441,638.064697 
z"/>
<path fill="#000000" opacity="1.000000" stroke="none" 
	d="
M226.286224,716.284363 
	C230.117615,713.835388 233.013626,715.640991 234.325333,718.501709 
	C235.028152,720.034546 233.805542,723.805603 232.355515,724.623840 
	C230.579590,725.626038 226.930313,725.490417 225.390518,724.242859 
	C222.755539,722.107971 223.530930,718.961548 226.286224,716.284363 
z"/>
<path fill="#000000" opacity="1.000000" stroke="none" 
	d="
M954.905396,777.888794 
	C951.544983,779.848572 948.837952,778.827454 947.361938,776.233215 
	C946.525269,774.762756 946.567810,771.742126 947.565247,770.548218 
	C948.767090,769.109741 951.467590,768.104065 953.403259,768.269287 
	C957.375549,768.608459 958.057617,772.711121 954.905396,777.888794 
z"/>
<path fill="#000000" opacity="1.000000" stroke="none" 
	d="
M836.673706,283.631592 
	C835.742432,286.190033 835.151917,288.986267 833.427673,290.374268 
	C832.311890,291.272491 829.069824,290.737518 827.652893,289.678040 
	C826.482117,288.802673 825.964539,286.110504 826.252747,284.408936 
	C827.029175,279.824646 832.247498,279.328888 836.673706,283.631592 
z"/>
<path fill="#000000" opacity="1.000000" stroke="none" 
	d="
M985.117432,664.070435 
	C987.317261,665.848450 989.863647,667.374146 990.648315,669.538452 
	C991.073059,670.710327 988.724243,674.146484 987.209961,674.444641 
	C985.303223,674.820007 981.989319,673.636536 981.017517,672.057678 
	C978.685059,668.268494 981.002502,665.611328 985.117432,664.070435 
z"/>
<path fill="#000000" opacity="1.000000" stroke="none" 
	d="
M624.625427,995.628540 
	C621.720032,992.723816 620.786255,989.405640 623.612122,986.787781 
	C624.900208,985.594421 628.428650,985.465942 630.062683,986.396606 
	C631.567261,987.253479 632.960144,990.458557 632.517944,992.130859 
	C631.615417,995.544067 628.492432,996.569031 624.625427,995.628540 
z"/>
<path fill="#000000" opacity="1.000000" stroke="none" 
	d="
M658.215454,219.317200 
	C654.111633,220.743408 651.747864,218.599670 651.359131,215.481216 
	C651.126221,213.612976 652.754456,210.675858 654.432617,209.593475 
	C657.274170,207.760757 660.070557,209.585770 661.430237,212.307358 
	C662.929016,215.307404 661.719238,217.781784 658.215454,219.317200 
z"/>
<path fill="#000000" opacity="1.000000" stroke="none" 
	d="
M713.280334,221.871811 
	C716.497925,227.186707 716.087341,228.990280 711.621399,231.134003 
	C707.739624,232.997345 705.839355,230.642532 705.023010,227.565079 
	C704.616638,226.032806 705.276123,223.140915 706.378052,222.528885 
	C708.193970,221.520355 710.760315,221.863190 713.280334,221.871811 
z"/>
<path fill="#000000" opacity="1.000000" stroke="none" 
	d="
M968.668213,457.458313 
	C966.463928,458.836609 964.359375,460.686462 962.357239,460.581512 
	C960.870178,460.503601 958.632568,458.037109 958.353271,456.363495 
	C958.078796,454.718750 959.450562,452.255554 960.866760,451.059662 
	C961.844482,450.234070 964.791443,450.270538 965.678162,451.133911 
	C967.206848,452.622345 967.816528,455.054626 968.668213,457.458313 
z"/>
<path fill="#000000" opacity="1.000000" stroke="none" 
	d="
M210.334442,669.407959 
	C209.644379,664.731873 212.593750,662.823303 215.930344,662.566833 
	C217.472534,662.448242 220.002075,664.785278 220.709076,666.557495 
	C221.847229,669.410522 220.622864,672.766296 217.341141,672.987305 
	C215.134521,673.135925 212.768356,670.915161 210.334442,669.407959 
z"/>
<path fill="#000000" opacity="1.000000" stroke="none" 
	d="
M210.832031,564.042419 
	C207.026810,562.224243 205.919952,559.324585 208.134232,556.345520 
	C209.204773,554.905212 212.640289,553.623962 213.904190,554.307190 
	C215.725464,555.291565 217.688934,558.228210 217.524933,560.155945 
	C217.272797,563.119690 215.063782,565.596619 210.832031,564.042419 
z"/>
<path fill="#000000" opacity="1.000000" stroke="none" 
	d="
M215.294495,527.135254 
	C217.746719,528.576355 220.902405,529.726685 221.518509,531.678650 
	C221.968185,533.103271 219.455841,536.317078 217.527679,537.325012 
	C216.325546,537.953491 212.924820,536.503479 211.963120,535.035034 
	C209.756699,531.666077 211.208450,528.798035 215.294495,527.135254 
z"/>
<path fill="#000000" opacity="1.000000" stroke="none" 
	d="
M855.376953,307.648438 
	C854.676147,307.843750 854.351379,307.898926 854.024170,307.927002 
	C850.762756,308.206696 847.746704,307.436005 847.342468,303.824463 
	C847.150208,302.106628 848.530273,298.909088 849.733154,298.621765 
	C851.948303,298.092651 855.343384,298.407928 856.823059,299.841156 
	C859.127380,302.072968 858.611694,305.271942 855.376953,307.648438 
z"/>
<path fill="#000000" opacity="1.000000" stroke="none" 
	d="
M600.844971,996.939331 
	C595.755249,996.312012 593.257019,993.688354 594.929688,990.594849 
	C595.943604,988.719849 598.222168,986.594727 600.101318,986.422363 
	C601.557617,986.288818 604.051514,988.728760 604.697266,990.523865 
	C605.691711,993.288025 604.926331,996.157532 600.844971,996.939331 
z"/>
<path fill="#000000" opacity="1.000000" stroke="none" 
	d="
M629.956177,216.895966 
	C624.363037,214.816147 622.469971,212.098083 624.735535,209.193390 
	C625.954590,207.630478 628.587463,206.208344 630.423035,206.384491 
	C631.965942,206.532578 634.647156,209.377243 634.405334,210.513031 
	C633.913269,212.824371 631.788574,214.788147 629.956177,216.895966 
z"/>
<path fill="#000000" opacity="1.000000" stroke="none" 
	d="
M571.462585,215.648102 
	C569.040710,213.256775 568.204407,210.566895 570.555176,208.457565 
	C572.026794,207.137085 574.971497,206.087128 576.588989,206.693359 
	C578.147339,207.277405 579.668457,210.109314 579.754944,212.019318 
	C579.928955,215.860519 576.202759,217.444122 571.462585,215.648102 
z"/>
<path fill="#000000" opacity="1.000000" stroke="none" 
	d="
M597.648315,208.052612 
	C600.023010,205.360992 602.641907,204.212341 605.027161,206.852142 
	C606.304138,208.265396 607.543274,211.554123 606.820801,212.526993 
	C605.547058,214.242157 602.641785,215.893433 600.627136,215.673203 
	C596.359497,215.206604 596.733521,211.606766 597.648315,208.052612 
z"/>
</svg>